<?xml version="1.0" ?><!DOCTYPE svg  PUBLIC '-//W3C//DTD SVG 1.1//EN'  'http://www.w3.org/Graphics/SVG/1.1/DTD/svg11.dtd'><svg enable-background="new 0 0 30 30" height="30px" id="JsFiddle" version="1.1" viewBox="0 0 30 30" width="30px" xml:space="preserve" xmlns="http://www.w3.org/2000/svg" xmlns:xlink="http://www.w3.org/1999/xlink"><path d="M26.36,13.81c0.011-0.176,0.026-0.35,0.026-0.527C26.387,8.429,22.93,5,18,5c-3.554,0-6.565,2.038-8,5  C9.303,9.468,7.949,9,7,9c-2.274,0-4.222,1.47-4.222,3.708c0,0.421,0.064,0.827,0.186,1.209C1.191,14.955,0,16.82,0,19  c0,3.256,2.705,5.949,6,6c0,0,17.982,0,18.092,0C27.354,25,30,22.213,30,19C30,16.576,28.497,14.687,26.36,13.81z M8.054,20.5  c-0.599-0.543-0.972-1.201-1.122-1.975c-0.049-0.26-0.074-0.531-0.074-0.816c-0.001-1.104,0.401-2.018,1.206-2.736  c0.804-0.72,1.827-1.081,3.07-1.08c1.275,0,2.478,0.477,3.54,1.432c0.265,0.237,0.521,0.506,0.768,0.803l1.365,1.605  c0.236,0.324,0.49,0.604,0.752,0.84c0.701,0.629,1.462,0.943,2.104,0.943c0.547,0,1.004-0.166,1.371-0.502  c0.32-0.305,0.501-0.672,0.542-1.094l0.008-0.186c0-0.184-0.025-0.357-0.079-0.521c-0.087-0.271-0.247-0.516-0.479-0.734  c-0.363-0.346-0.82-0.518-1.375-0.518c-0.681,0-1.354,0.23-2.093,0.945l-1.209-1.422L16.2,15.319  c1.057-1.036,2.112-1.425,3.533-1.425c1.26,0,2.279,0.357,3.059,1.072l0.018,0.014c0.793,0.713,1.19,1.635,1.19,2.764  c0,0.281-0.025,0.547-0.074,0.803c-0.149,0.764-0.522,1.416-1.12,1.955c-0.586,0.541-1.302,0.879-2.146,1.014  c-0.281,0.045-0.577,0.066-0.888,0.066c-1.305,0-2.511-0.467-3.548-1.398c-0.28-0.252-0.549-0.537-0.803-0.857l-1.366-1.594  c-0.23-0.32-0.48-0.596-0.74-0.83c-0.699-0.629-1.47-0.943-2.131-0.943c-0.205,0-0.397,0.025-0.577,0.072  c-0.297,0.08-0.558,0.227-0.783,0.441c-0.275,0.262-0.448,0.564-0.516,0.904c-0.022,0.113-0.035,0.232-0.034,0.354  c0,0.486,0.175,0.9,0.524,1.244L9.825,19c0.375,0.344,0.836,0.514,1.383,0.514c0.688,0,1.364-0.23,2.101-0.951l1.203,1.402  l0.133,0.162c-1.099,1.047-2.143,1.443-3.509,1.443C9.877,21.57,8.85,21.213,8.054,20.5z" id="js"/></svg>